HIERARCHY
ROOT mixamorig:Hips
{
	OFFSET 0.000000 3.528733 0.000000
	CHANNELS 6 Xposition Yposition Zposition Xrotation Yrotation Zrotation
	JOINT mixamorig:Spine
	{
		OFFSET 0.000000 0.284700 -0.015200
		CHANNELS 3 Xrotation Yrotation Zrotation
		JOINT mixamorig:Spine1
		{
			OFFSET 0.000000 0.332125 -0.017771
			CHANNELS 3 Xrotation Yrotation Zrotation
			JOINT mixamorig:Spine2
			{
				OFFSET 0.000000 0.379557 -0.020309
				CHANNELS 3 Xrotation Yrotation Zrotation
				JOINT mixamorig:Neck
				{
					OFFSET 0.000000 0.426989 -0.022847
					CHANNELS 3 Xrotation Yrotation Zrotation
					JOINT mixamorig:Head
					{
						OFFSET 0.000000 0.288600 0.098000
						CHANNELS 3 Xrotation Yrotation Zrotation
						JOINT mixamorig:HeadTop_End
						{
							OFFSET 0.000000 0.712700 0.242000
							CHANNELS 3 Xrotation Yrotation Zrotation
							End Site
							{
								OFFSET 0.000000 0.752666 0.000000
							}
						}
					}
				}
				JOINT mixamorig:LeftShoulder
				{
					OFFSET 0.202600 0.346984 -0.022672
					CHANNELS 3 Xrotation Yrotation Zrotation
					JOINT mixamorig:LeftArm
					{
						OFFSET 0.427337 -0.109325 0.000307
						CHANNELS 3 Xrotation Yrotation Zrotation
						JOINT mixamorig:LeftForeArm
						{
							OFFSET 0.849600 0.000000 0.000000
							CHANNELS 3 Xrotation Yrotation Zrotation
							JOINT mixamorig:LeftHand
							{
								OFFSET 0.753900 0.000000 0.000000
								CHANNELS 3 Xrotation Yrotation Zrotation
								JOINT mixamorig:LeftHandThumb1
								{
									OFFSET 0.136012 -0.086473 0.045448
									CHANNELS 3 Xrotation Yrotation Zrotation
									JOINT mixamorig:LeftHandThumb2
									{
										OFFSET 0.103772 -0.059913 0.059913
										CHANNELS 3 Xrotation Yrotation Zrotation
										JOINT mixamorig:LeftHandThumb3
										{
											OFFSET 0.095779 -0.055298 0.055298
											CHANNELS 3 Xrotation Yrotation Zrotation
											JOINT mixamorig:LeftHandThumb4
											{
												OFFSET 0.073275 -0.042305 0.042305
												CHANNELS 3 Xrotation Yrotation Zrotation
												End Site
												{
													OFFSET 0.065698 -0.038445 0.056164
												}
											}
										}
									}
								}
								JOINT mixamorig:LeftHandIndex1
								{
									OFFSET 0.449965 -0.020370 0.085418
									CHANNELS 3 Xrotation Yrotation Zrotation
									JOINT mixamorig:LeftHandIndex2
									{
										OFFSET 0.102424 0.000000 -0.000000
										CHANNELS 3 Xrotation Yrotation Zrotation
										JOINT mixamorig:LeftHandIndex3
										{
											OFFSET 0.096306 0.000000 -0.000000
											CHANNELS 3 Xrotation Yrotation Zrotation
											JOINT mixamorig:LeftHandIndex4
											{
												OFFSET 0.078408 0.000000 -0.000000
												CHANNELS 3 Xrotation Yrotation Zrotation
												End Site
												{
													OFFSET 0.078400 -0.000010 -0.001100
												}
											}
										}
									}
								}
								JOINT mixamorig:LeftHandMiddle1
								{
									OFFSET 0.430485 0.000000 0.000000
									CHANNELS 3 Xrotation Yrotation Zrotation
									JOINT mixamorig:LeftHandMiddle2
									{
										OFFSET 0.112203 0.000000 0.000000
										CHANNELS 3 Xrotation Yrotation Zrotation
										JOINT mixamorig:LeftHandMiddle3
										{
											OFFSET 0.108209 0.000000 0.000000
											CHANNELS 3 Xrotation Yrotation Zrotation
											JOINT mixamorig:LeftHandMiddle4
											{
												OFFSET 0.087466 0.000000 0.000000
												CHANNELS 3 Xrotation Yrotation Zrotation
												End Site
												{
													OFFSET 0.087400 -0.000057 -0.003400
												}
											}
										}
									}
								}
								JOINT mixamorig:LeftHandRing1
								{
									OFFSET 0.364574 -0.002440 -0.092011
									CHANNELS 3 Xrotation Yrotation Zrotation
									JOINT mixamorig:LeftHandRing2
									{
										OFFSET 0.114832 0.000000 0.000000
										CHANNELS 3 Xrotation Yrotation Zrotation
										JOINT mixamorig:LeftHandRing3
										{
											OFFSET 0.104409 0.000000 0.000000
											CHANNELS 3 Xrotation Yrotation Zrotation
											JOINT mixamorig:LeftHandRing4
											{
												OFFSET 0.080424 0.000000 0.000000
												CHANNELS 3 Xrotation Yrotation Zrotation
												End Site
												{
													OFFSET 0.080200 -0.000053 -0.006000
												}
											}
										}
									}
								}
								JOINT mixamorig:LeftHandPinky1
								{
									OFFSET 0.312269 -0.016255 -0.171399
									CHANNELS 3 Xrotation Yrotation Zrotation
									JOINT mixamorig:LeftHandPinky2
									{
										OFFSET 0.087028 0.000000 0.000000
										CHANNELS 3 Xrotation Yrotation Zrotation
										JOINT mixamorig:LeftHandPinky3
										{
											OFFSET 0.073733 0.000000 0.000000
											CHANNELS 3 Xrotation Yrotation Zrotation
											JOINT mixamorig:LeftHandPinky4
											{
												OFFSET 0.056250 0.000000 0.000000
												CHANNELS 3 Xrotation Yrotation Zrotation
												End Site
												{
													OFFSET 0.056100 -0.000056 -0.004100
												}
											}
										}
									}
								}
							}
						}
					}
				}
				JOINT mixamorig:RightShoulder
				{
					OFFSET -0.202600 0.346968 -0.022971
					CHANNELS 3 Xrotation Yrotation Zrotation
					JOINT mixamorig:RightArm
					{
						OFFSET -0.427342 -0.109309 -0.000307
						CHANNELS 3 Xrotation Yrotation Zrotation
						JOINT mixamorig:RightForeArm
						{
							OFFSET -0.849600 0.000000 -0.000000
							CHANNELS 3 Xrotation Yrotation Zrotation
							JOINT mixamorig:RightHand
							{
								OFFSET -0.753900 0.000000 -0.000000
								CHANNELS 3 Xrotation Yrotation Zrotation
								JOINT mixamorig:RightHandThumb1
								{
									OFFSET -0.139217 -0.077736 0.046135
									CHANNELS 3 Xrotation Yrotation Zrotation
									JOINT mixamorig:RightHandThumb2
									{
										OFFSET -0.102889 -0.059403 0.059403
										CHANNELS 3 Xrotation Yrotation Zrotation
										JOINT mixamorig:RightHandThumb3
										{
											OFFSET -0.097122 -0.056073 0.056073
											CHANNELS 3 Xrotation Yrotation Zrotation
											JOINT mixamorig:RightHandThumb4
											{
												OFFSET -0.076714 -0.044291 0.044291
												CHANNELS 3 Xrotation Yrotation Zrotation
												End Site
												{
													OFFSET -0.072157 -0.042014 0.053259
												}
											}
										}
									}
								}
								JOINT mixamorig:RightHandIndex1
								{
									OFFSET -0.450325 -0.003448 0.076701
									CHANNELS 3 Xrotation Yrotation Zrotation
									JOINT mixamorig:RightHandIndex2
									{
										OFFSET -0.104343 0.000000 -0.000000
										CHANNELS 3 Xrotation Yrotation Zrotation
										JOINT mixamorig:RightHandIndex3
										{
											OFFSET -0.097003 0.000000 -0.000000
											CHANNELS 3 Xrotation Yrotation Zrotation
											JOINT mixamorig:RightHandIndex4
											{
												OFFSET -0.081630 0.000000 -0.000000
												CHANNELS 3 Xrotation Yrotation Zrotation
												End Site
												{
													OFFSET -0.081600 -0.000082 -0.002198
												}
											}
										}
									}
								}
								JOINT mixamorig:RightHandMiddle1
								{
									OFFSET -0.397234 0.000000 -0.000000
									CHANNELS 3 Xrotation Yrotation Zrotation
									JOINT mixamorig:RightHandMiddle2
									{
										OFFSET -0.115313 0.000000 -0.000000
										CHANNELS 3 Xrotation Yrotation Zrotation
										JOINT mixamorig:RightHandMiddle3
										{
											OFFSET -0.121324 0.000000 -0.000000
											CHANNELS 3 Xrotation Yrotation Zrotation
											JOINT mixamorig:RightHandMiddle4
											{
												OFFSET -0.103502 0.000000 0.000000
												CHANNELS 3 Xrotation Yrotation Zrotation
												End Site
												{
													OFFSET -0.103400 -0.000083 -0.004599
												}
											}
										}
									}
								}
								JOINT mixamorig:RightHandRing1
								{
									OFFSET -0.356229 0.006227 -0.097026
									CHANNELS 3 Xrotation Yrotation Zrotation
									JOINT mixamorig:RightHandRing2
									{
										OFFSET -0.116123 0.000000 0.000000
										CHANNELS 3 Xrotation Yrotation Zrotation
										JOINT mixamorig:RightHandRing3
										{
											OFFSET -0.105608 0.000000 0.000000
											CHANNELS 3 Xrotation Yrotation Zrotation
											JOINT mixamorig:RightHandRing4
											{
												OFFSET -0.089388 0.000000 0.000000
												CHANNELS 3 Xrotation Yrotation Zrotation
												End Site
												{
													OFFSET -0.089200 -0.000198 -0.005797
												}
											}
										}
									}
								}
								JOINT mixamorig:RightHandPinky1
								{
									OFFSET -0.319258 -0.005155 -0.189362
									CHANNELS 3 Xrotation Yrotation Zrotation
									JOINT mixamorig:RightHandPinky2
									{
										OFFSET -0.084919 0.000000 0.000000
										CHANNELS 3 Xrotation Yrotation Zrotation
										JOINT mixamorig:RightHandPinky3
										{
											OFFSET -0.068357 0.000000 0.000000
											CHANNELS 3 Xrotation Yrotation Zrotation
											JOINT mixamorig:RightHandPinky4
											{
												OFFSET -0.053427 0.000000 0.000000
												CHANNELS 3 Xrotation Yrotation Zrotation
												End Site
												{
													OFFSET -0.053400 -0.000117 -0.001696
												}
											}
										}
									}
								}
							}
						}
					}
				}
			}
		}
	}
	JOINT mixamorig:LeftUpLeg
	{
		OFFSET 0.302300 -0.158000 -0.006800
		CHANNELS 3 Xrotation Yrotation Zrotation
		JOINT mixamorig:LeftLeg
		{
			OFFSET -0.021195 -1.512800 -0.072827
			CHANNELS 3 Xrotation Yrotation Zrotation
			JOINT mixamorig:LeftFoot
			{
				OFFSET 0.021196 -1.499076 -0.232845
				CHANNELS 3 Xrotation Yrotation Zrotation
				JOINT mixamorig:LeftToeBase
				{
					OFFSET 0.176214 -0.335644 0.384848
					CHANNELS 3 Xrotation Yrotation Zrotation
					JOINT mixamorig:LeftToe_End
					{
						OFFSET 0.078950 -0.008059 0.195507
						CHANNELS 3 Xrotation Yrotation Zrotation
						End Site
						{
							OFFSET 0.078950 -0.008059 0.195507
						}
					}
				}
			}
		}
	}
	JOINT mixamorig:RightUpLeg
	{
		OFFSET -0.302300 -0.158000 -0.006600
		CHANNELS 3 Xrotation Yrotation Zrotation
		JOINT mixamorig:RightLeg
		{
			OFFSET 0.021196 -1.512831 -0.074247
			CHANNELS 3 Xrotation Yrotation Zrotation
			JOINT mixamorig:RightFoot
			{
				OFFSET -0.021196 -1.499093 -0.231430
				CHANNELS 3 Xrotation Yrotation Zrotation
				JOINT mixamorig:RightToeBase
				{
					OFFSET -0.176206 -0.335620 0.376547
					CHANNELS 3 Xrotation Yrotation Zrotation
					JOINT mixamorig:RightToe_End
					{
						OFFSET -0.078935 -0.008056 0.196268
						CHANNELS 3 Xrotation Yrotation Zrotation
						End Site
						{
							OFFSET -0.078935 -0.008056 0.196268
						}
					}
				}
			}
		}
	}
}
MOTION
Frames: 4
Frame Time: 0.016667
0.006457 3.436181 -0.002022 -0.271104 10.140416 -4.965315 2.622182 -0.799426 3.766044 1.656092 -2.278673 0.845950 -2.923705 -2.285055 0.251910 -3.367574 -1.151238 -0.983951 -1.349393 -3.841517 0.310223 0.000000 -0.000000 -0.000000 8.280027 -20.929235 3.137772 1.625312 4.497740 -76.980248 -0.000006 -36.305109 0.000006 19.884183 -19.957142 5.430768 28.897530 8.894055 20.768607 -8.694752 18.043837 -12.336310 7.946575 -11.221941 1.406939 -0.000000 -0.000001 -0.000004 0.321250 3.500395 3.987062 0.265673 2.465243 -16.816431 -0.020309 0.178483 -3.850806 -0.000002 0.000000 0.000001 0.605077 7.624336 -16.487711 0.612763 3.443012 -27.102857 0.271777 1.846627 -15.987014 -0.000003 -0.000001 -0.000000 0.877062 8.006956 -34.399800 0.422014 2.000697 -17.172351 0.298766 1.211753 -12.585016 -0.000001 -0.000001 -0.000001 3.574087 13.525538 -31.383862 0.487199 2.680676 -29.100793 0.074791 1.530298 -6.724086 0.000003 -0.000001 -0.000001 -0.855009 5.246480 5.396586 22.093490 -2.728035 73.794771 0.000009 32.516789 0.000009 25.457305 8.380646 4.049685 12.593936 -8.153681 -17.222424 6.064808 -5.313278 -13.324096 -13.753611 7.447205 9.069852 0.000000 -0.000002 -0.000003 -0.934018 0.803132 10.773204 0.637305 -3.394044 26.746413 -0.167841 -0.590579 17.433267 -0.000000 -0.000001 -0.000002 0.839939 -8.113494 23.112406 1.181234 -4.370035 38.023482 0.821922 -3.075376 31.081729 -0.000000 -0.000000 -0.000001 1.275674 -8.669034 41.005580 0.713382 -2.594941 23.801276 -0.130795 -0.209835 20.215109 0.000001 0.000001 -0.000000 2.500280 -10.281945 45.253056 1.612579 -4.332284 49.089666 -0.378845 -2.603580 43.266766 -0.000001 -0.000001 -0.000002 -26.882740 -1.769094 3.379900 63.544248 1.756527 6.858806 6.537395 0.215262 -1.534794 -1.567171 0.000000 -0.000000 0.000002 -0.000003 -0.000003 -13.004783 -13.674474 9.087231 18.468049 1.247802 -2.023806 -4.483250 -4.740559 -5.094976 -2.773159 0.000008 0.000002 -0.000000 -0.000001 -0.000000 
0.011043 3.444721 0.094846 0.071174 9.463248 -4.436239 2.470301 -0.533189 3.485740 1.478864 -1.798903 0.504708 -3.081256 -1.793314 -0.077349 -3.084657 -1.257317 -0.784113 -0.815951 -4.078252 0.670995 -0.000000 -0.000000 -0.000000 8.210778 -21.035405 2.863992 2.880973 5.866419 -78.111642 -0.000010 -34.150901 0.000003 21.128835 -16.573978 1.168072 28.372030 9.408998 22.433171 -8.425153 10.423340 -13.272548 7.355631 -18.500363 2.994625 -0.000002 -0.000007 -0.000001 0.881506 3.833970 2.137168 0.271198 2.483353 -17.003867 -0.019695 0.197462 -4.038006 0.000003 0.000000 0.000001 0.833943 8.341065 -17.484972 0.612216 3.441907 -27.090656 0.271487 1.845708 -15.977344 -0.000002 0.000001 0.000001 0.980251 8.187678 -35.498955 0.418570 1.992439 -17.082597 0.295992 1.203260 -12.495058 -0.000002 -0.000003 -0.000001 3.922950 14.007965 -31.884901 0.486502 2.679083 -29.083526 0.074468 1.528586 -6.706851 -0.000000 0.000001 -0.000001 -0.867165 5.492029 5.663052 19.126492 -2.865350 73.178626 -0.000011 33.031392 0.000022 26.299119 7.403350 3.470339 12.401745 -8.045253 -17.371447 5.906204 -5.483142 -13.230627 -13.792164 7.573577 9.059014 0.000001 -0.000003 -0.000008 -0.976779 0.966071 10.925609 0.633636 -3.386763 26.665528 -0.168679 -0.582197 17.352657 -0.000001 0.000002 0.000001 0.709416 -7.799273 23.374412 1.181594 -4.370513 38.029267 0.822194 -3.075804 31.086725 0.000000 -0.000001 -0.000000 1.264353 -8.656234 41.132472 0.714601 -2.597094 23.826198 -0.130463 -0.212379 20.240316 0.000001 0.000001 -0.000000 2.475559 -10.243579 45.446098 1.614067 -4.333809 49.110812 -0.378067 -2.605829 43.287816 0.000001 -0.000003 0.000001 -30.011206 -1.762500 1.756631 60.722076 2.545075 6.827644 5.238044 0.392266 -2.498162 -1.748855 -0.000005 0.000006 0.000004 -0.000005 -0.000000 -11.411948 -13.731032 8.801862 18.017633 1.011669 -2.268018 -5.190863 -3.671812 -4.781113 -2.768563 -0.000003 -0.000003 0.000001 -0.000001 0.000000 
0.016394 3.448687 0.188716 0.530246 8.451677 -3.887413 2.213455 -0.246871 3.121786 1.315042 -1.230268 0.276654 -3.222695 -1.219648 -0.291044 -2.918596 -1.311326 -0.730251 -0.365595 -4.263025 0.850712 -0.000000 -0.000000 0.000000 8.093161 -21.021989 2.417046 4.376354 8.043949 -79.010324 -0.000001 -32.641990 0.000005 23.968129 -14.938713 -4.179129 27.812961 9.980985 24.222603 -4.314070 10.920118 -13.956745 6.985232 -20.041030 2.351814 -0.000003 -0.000003 -0.000005 1.492319 4.067841 0.529286 0.271752 2.485204 -17.022988 -0.019647 0.199406 -4.057079 -0.000001 -0.000003 -0.000000 0.983040 8.760687 -18.161490 0.611821 3.441065 -27.081178 0.271271 1.845003 -15.970063 -0.000001 -0.000002 0.000002 1.080903 8.350781 -36.294522 0.415333 1.984741 -16.999311 0.293414 1.195365 -12.411215 0.000000 0.000002 -0.000001 4.145378 14.284171 -32.301382 0.486436 2.678939 -29.081914 0.074425 1.528416 -6.705217 -0.000001 -0.000000 0.000002 -0.860026 5.576472 5.474954 16.210518 -2.496187 72.682468 -0.000005 33.410198 0.000012 26.510570 6.463995 3.262969 12.224889 -7.966662 -17.512047 5.744544 -5.684822 -13.137178 -13.831384 7.702501 9.048130 0.000001 -0.000005 0.000001 -1.011473 1.151470 10.975970 0.638126 -3.395722 26.764952 -0.167654 -0.592506 17.451780 -0.000002 -0.000002 -0.000001 0.563591 -7.457204 23.652788 1.182070 -4.371146 38.037450 0.822445 -3.076237 31.091673 0.000001 0.000003 -0.000002 1.265207 -8.658504 41.229631 0.716087 -2.599737 23.856521 -0.130042 -0.215496 20.270724 -0.000001 0.000000 0.000001 2.436835 -10.189057 45.632426 1.615132 -4.334900 49.126289 -0.377498 -2.607493 43.303222 -0.000001 -0.000002 0.000003 -32.098529 -1.887558 0.479962 56.496347 3.675834 6.604314 3.507479 0.576757 -3.448104 -0.754667 -0.000010 0.000005 -0.000000 -0.000007 0.000000 -10.136357 -13.711383 8.316659 17.852878 1.271436 -2.369988 -6.142856 -2.451404 -4.507078 -2.705074 -0.000003 -0.000002 -0.000000 -0.000003 -0.000000 
0.023108 3.446720 0.282122 0.956720 7.276339 -3.253729 1.934338 0.044915 2.658559 1.272242 -0.593147 0.163296 -3.243458 -0.588647 -0.384774 -2.975077 -1.310088 -0.896741 -0.081763 -4.501762 1.007840 -0.000000 0.000000 -0.000000 7.811859 -20.764526 1.354667 6.040104 10.248976 -79.214505 -0.000002 -32.290638 0.000003 27.381772 -13.000223 -9.805989 27.245469 10.564752 26.072217 -0.093859 11.437718 -14.378197 6.658997 -21.772538 1.953166 0.000001 0.000000 -0.000003 2.146414 4.228809 -0.599615 0.272972 2.489180 -17.064306 -0.019475 0.203563 -4.098280 0.000004 -0.000000 -0.000000 1.114191 9.127435 -18.534958 0.611385 3.440203 -27.071537 0.271059 1.844338 -15.962902 -0.000002 -0.000001 -0.000000 1.153284 8.462230 -36.709200 0.413607 1.980595 -16.954217 0.292023 1.191047 -12.365638 -0.000001 -0.000001 -0.000000 4.227152 14.394313 -32.405641 0.486932 2.680078 -29.094232 0.074658 1.529651 -6.717537 -0.000000 -0.000002 -0.000001 -0.826365 5.749570 4.688524 13.218107 -2.050936 72.597726 0.000022 33.752449 -0.000018 26.485194 5.634840 3.215638 12.250574 -7.699934 -17.429287 5.465014 -5.851899 -13.130714 -13.867435 7.821202 9.038299 -0.000004 -0.000005 -0.000007 -1.051998 1.321929 11.090138 0.638734 -3.396886 26.777854 -0.167510 -0.593850 17.464702 0.000001 0.000001 -0.000002 0.411517 -7.109769 23.935834 1.182435 -4.371630 38.043467 0.822651 -3.076562 31.095590 -0.000000 -0.000001 0.000000 1.264913 -8.660049 41.381927 0.717866 -2.602874 23.892668 -0.129551 -0.219186 20.307004 -0.000002 0.000003 0.000001 2.387920 -10.121242 45.871031 1.613870 -4.333606 49.108135 -0.378169 -2.605547 43.285135 -0.000000 0.000002 -0.000000 -33.938295 -1.853205 -0.565864 51.832540 4.293757 6.259960 2.474199 0.704268 -3.944359 -0.072335 -0.000005 0.000001 -0.000002 -0.000003 -0.000001 -8.891502 -13.670799 7.660133 17.854318 1.751360 -2.476112 -7.655224 -1.137829 -4.210548 -2.402817 0.000005 -0.000002 0.000000 0.000002 -0.000000 
